<svg width="40" height="32" viewBox="0 0 40 32" fill="none" xmlns="http://www.w3.org/2000/svg">
<path d="M23.2832 3.39207C23.306 1.56419 21.8427 0.0639207 20.0148 0.0411169C18.1869 0.0183132 16.6867 1.48161 16.6638 3.30949C16.641 5.13736 18.1043 6.63763 19.9322 6.66043C21.7601 6.68323 23.2604 5.21994 23.2832 3.39207Z" fill="#2B2B2B"/>
<path d="M32.974 11.8623C34.1487 11.8623 35.1012 10.9098 35.1012 9.73504C35.1012 9.33022 34.9901 8.95715 34.7996 8.63965C34.752 8.65552 34.7044 8.67934 34.6647 8.69521C34.1011 8.90953 33.5375 9.02065 32.974 9.02065C32.4104 9.02065 31.8389 8.90953 31.2753 8.69521C31.2356 8.67934 31.188 8.66346 31.1483 8.64759C30.9578 8.96509 30.8467 9.33816 30.8467 9.73504C30.8467 10.9098 31.7992 11.8623 32.974 11.8623Z" fill="#FF883E"/>
<path d="M39.2603 5.31348C37.5458 14.8942 32.4657 13.6639 30.3067 13.6718C28.7985 17.0453 30.1558 25.1655 35.7916 28.5707C27.9174 17.5692 39.9429 16.5373 39.2603 5.31348Z" fill="#FF883E"/>
<path d="M31.4499 8.22652C31.4579 8.22652 31.4579 8.22652 31.4658 8.23446C32.4818 8.61547 33.4661 8.61547 34.4742 8.23446C34.4742 8.23446 34.4742 8.23446 34.4821 8.23446C34.4821 8.23446 34.4821 8.23446 34.4901 8.23446L34.7837 6.44056C33.5772 6.09924 32.3628 6.09924 31.1562 6.44056L31.4499 8.22652C31.4499 8.21859 31.4499 8.21859 31.4499 8.22652ZM32.2755 7.09938H32.7597V6.61519H33.1724V7.09938H33.6566V7.51214H33.1724V7.61533V8.00427H32.7597V7.62327V7.52008H32.2755V7.09938Z" fill="#FF883E"/>
<path d="M7.01791 11.8622C8.19268 11.8622 9.14519 10.9097 9.14519 9.73492C9.14519 9.4571 9.08963 9.19516 8.99437 8.95703H5.04144C4.94619 9.19516 4.89062 9.46504 4.89062 9.73492C4.89062 10.9097 5.84314 11.8622 7.01791 11.8622Z" fill="#169B62"/>
<path d="M9.69276 13.6718C7.53373 13.6559 2.45365 14.8942 0.739124 5.31348C0.0564882 16.5373 12.0741 17.5692 4.20787 28.5787C9.84358 25.1655 11.2009 17.0453 9.69276 13.6718Z" fill="#169B62"/>
<path d="M6.74778 6.92482H7.26373C7.4066 6.92482 7.52567 6.80575 7.52567 6.66288V5.88499C7.52567 5.74211 7.4066 5.62305 7.26373 5.62305H6.74778C6.6049 5.62305 6.48584 5.74211 6.48584 5.88499V6.66288C6.48584 6.81369 6.6049 6.92482 6.74778 6.92482Z" fill="#169B62"/>
<path d="M5.12068 8.47258C5.14449 8.48052 5.1683 8.48052 5.19212 8.48052H5.29531H8.74023L8.7323 8.47258H8.89105C9.00218 8.44083 9.08155 8.34558 9.08155 8.22652V7.96458C9.08155 7.8217 8.96249 7.70264 8.81961 7.70264C8.81961 7.02794 8.44654 6.44055 7.89885 6.12305V6.66281C7.89885 7.01206 7.61309 7.29782 7.26384 7.29782H6.74789C6.39864 7.29782 6.11288 7.01206 6.11288 6.66281V6.12305C5.56519 6.43261 5.19212 7.02794 5.19212 7.70264C5.04924 7.70264 4.93018 7.8217 4.93018 7.96458V8.22652C4.93018 8.34558 5.00955 8.44083 5.12068 8.47258Z" fill="#169B62"/>
<path d="M30.5052 0.138672C29.378 4.84568 25.3219 8.83037 21.7738 9.91782L20.5673 11.3942L21.3213 15.0455L19.964 17.5776L18.6067 15.0455L19.3608 11.3942L18.1463 9.90989C14.6299 8.8145 10.55 4.83775 9.42285 0.138672C9.42285 8.86212 22.5596 14.0533 9.8753 32.0003C17.9399 26.1185 19.845 19.0461 19.9561 18.8238C20.0672 19.0461 21.9722 26.1265 30.0369 32.0003C17.3684 14.0454 30.5052 8.86212 30.5052 0.138672Z" fill="#2B2B2B"/>
</svg>
