<svg width="54" height="54" viewBox="0 0 54 54" fill="none" xmlns="http://www.w3.org/2000/svg">
<g filter="url(#filter0_di_265_57465)">
<rect x="3" y="2" width="48" height="48" rx="24" fill="white" shape-rendering="crispEdges"/>
<path d="M35 31H37V33H17V31H19V24C19 21.8783 19.8429 19.8434 21.3431 18.3431C22.8434 16.8429 24.8783 16 27 16C29.1217 16 31.1566 16.8429 32.6569 18.3431C34.1571 19.8434 35 21.8783 35 24V31ZM33 31V24C33 22.4087 32.3679 20.8826 31.2426 19.7574C30.1174 18.6321 28.5913 18 27 18C25.4087 18 23.8826 18.6321 22.7574 19.7574C21.6321 20.8826 21 22.4087 21 24V31H33ZM24 35H30V37H24V35Z" fill="#2F2B43"/>
<rect x="3.5" y="2.5" width="47" height="47" rx="23.5" stroke="#2F2B43" stroke-opacity="0.1" shape-rendering="crispEdges"/>
</g>
<defs>
<filter id="filter0_di_265_57465" x="0" y="0" width="54" height="54" filterUnits="userSpaceOnUse" color-interpolation-filters="sRGB">
<feFlood flood-opacity="0" result="BackgroundImageFix"/>
<feColorMatrix in="SourceAlpha" type="matrix" values="0 0 0 0 0 0 0 0 0 0 0 0 0 0 0 0 0 0 127 0" result="hardAlpha"/>
<feOffset dy="1"/>
<feGaussianBlur stdDeviation="1.5"/>
<feComposite in2="hardAlpha" operator="out"/>
<feColorMatrix type="matrix" values="0 0 0 0 0.184314 0 0 0 0 0.168627 0 0 0 0 0.262745 0 0 0 0.1 0"/>
<feBlend mode="normal" in2="BackgroundImageFix" result="effect1_dropShadow_265_57465"/>
<feBlend mode="normal" in="SourceGraphic" in2="effect1_dropShadow_265_57465" result="shape"/>
<feColorMatrix in="SourceAlpha" type="matrix" values="0 0 0 0 0 0 0 0 0 0 0 0 0 0 0 0 0 0 127 0" result="hardAlpha"/>
<feOffset dy="-1"/>
<feComposite in2="hardAlpha" operator="arithmetic" k2="-1" k3="1"/>
<feColorMatrix type="matrix" values="0 0 0 0 0.184314 0 0 0 0 0.168627 0 0 0 0 0.262745 0 0 0 0.1 0"/>
<feBlend mode="normal" in2="shape" result="effect2_innerShadow_265_57465"/>
</filter>
</defs>
</svg>
