<svg width="54" height="54" viewBox="0 0 54 54" fill="none" xmlns="http://www.w3.org/2000/svg">
<g filter="url(#filter0_di_103_63510)">
<path d="M3 21.2C3 14.4794 3 11.1191 4.30792 8.55211C5.4584 6.29417 7.29417 4.4584 9.55211 3.30792C12.1191 2 15.4794 2 22.2 2H31.8C38.5206 2 41.8809 2 44.4479 3.30792C46.7058 4.4584 48.5416 6.29417 49.6921 8.55211C51 11.1191 51 14.4794 51 21.2V30.8C51 37.5206 51 40.8809 49.6921 43.4479C48.5416 45.7058 46.7058 47.5416 44.4479 48.6921C41.8809 50 38.5206 50 31.8 50H22.2C15.4794 50 12.1191 50 9.55211 48.6921C7.29417 47.5416 5.4584 45.7058 4.30792 43.4479C3 40.8809 3 37.5206 3 30.8V21.2Z" fill="hsl(23, 100%, 50%)"/>
</g>
<g clip-path="url(#clip0_103_63510)">
<path d="M29.6665 19.3333V10.6133C30.8999 11.0791 32.0202 11.8017 32.9532 12.7333L37.5985 17.3813C38.5311 18.3132 39.2543 19.4332 39.7198 20.6667H30.9998C30.6462 20.6667 30.3071 20.5262 30.057 20.2761C29.807 20.0261 29.6665 19.687 29.6665 19.3333ZM40.3332 23.98V35.3333C40.3311 37.1008 39.628 38.7953 38.3782 40.045C37.1284 41.2948 35.434 41.9979 33.6665 42H20.3332C18.5657 41.9979 16.8712 41.2948 15.6215 40.045C14.3717 38.7953 13.6686 37.1008 13.6665 35.3333V16.6667C13.6686 14.8992 14.3717 13.2047 15.6215 11.955C16.8712 10.7052 18.5657 10.0021 20.3332 10H26.3532C26.5705 10 26.7852 10.0173 26.9998 10.032V19.3333C26.9998 20.3942 27.4213 21.4116 28.1714 22.1618C28.9216 22.9119 29.939 23.3333 30.9998 23.3333H40.3012C40.3158 23.548 40.3332 23.7627 40.3332 23.98ZM33.2985 29.0813C33.0548 28.8255 32.7194 28.6769 32.3662 28.6681C32.0129 28.6594 31.6706 28.7912 31.4145 29.0347L26.6145 33.6093C26.4862 33.7383 26.3329 33.8398 26.164 33.9073C25.9951 33.9749 25.8142 34.0071 25.6323 34.0021C25.4505 33.9971 25.2716 33.955 25.1066 33.8783C24.9417 33.8015 24.7942 33.6919 24.6732 33.556L22.5545 31.6707C22.4237 31.5541 22.2712 31.4643 22.1058 31.4067C21.9403 31.349 21.7651 31.3244 21.5901 31.3345C21.2368 31.3547 20.906 31.5145 20.6705 31.7787C20.5539 31.9095 20.4642 32.0619 20.4065 32.2274C20.3488 32.3929 20.3243 32.5681 20.3343 32.743C20.3546 33.0964 20.5143 33.4272 20.7785 33.6627L22.8372 35.4947C23.5834 36.2411 24.5944 36.6623 25.6498 36.6665C26.7053 36.6708 27.7196 36.2577 28.4718 35.5173L33.2518 30.9653C33.5077 30.7216 33.6563 30.3862 33.6651 30.033C33.6738 29.6797 33.542 29.3374 33.2985 29.0813Z" fill="white"/>
</g>
<defs>
<filter id="filter0_di_103_63510" x="0" y="0" width="54" height="54" filterUnits="userSpaceOnUse" color-interpolation-filters="sRGB">
<feFlood flood-opacity="0" result="BackgroundImageFix"/>
<feColorMatrix in="SourceAlpha" type="matrix" values="0 0 0 0 0 0 0 0 0 0 0 0 0 0 0 0 0 0 127 0" result="hardAlpha"/>
<feOffset dy="1"/>
<feGaussianBlur stdDeviation="1.5"/>
<feComposite in2="hardAlpha" operator="out"/>
<feColorMatrix type="matrix" values="0 0 0 0 0.184314 0 0 0 0 0.168627 0 0 0 0 0.262745 0 0 0 0.1 0"/>
<feBlend mode="normal" in2="BackgroundImageFix" result="effect1_dropShadow_103_63510"/>
<feBlend mode="normal" in="SourceGraphic" in2="effect1_dropShadow_103_63510" result="shape"/>
<feColorMatrix in="SourceAlpha" type="matrix" values="0 0 0 0 0 0 0 0 0 0 0 0 0 0 0 0 0 0 127 0" result="hardAlpha"/>
<feOffset dy="-1"/>
<feComposite in2="hardAlpha" operator="arithmetic" k2="-1" k3="1"/>
<feColorMatrix type="matrix" values="0 0 0 0 0.184314 0 0 0 0 0.168627 0 0 0 0 0.262745 0 0 0 0.1 0"/>
<feBlend mode="normal" in2="shape" result="effect2_innerShadow_103_63510"/>
</filter>
<clipPath id="clip0_103_63510">
<rect width="32" height="32" fill="white" transform="translate(11 10)"/>
</clipPath>
</defs>
</svg>
