<svg width="54" height="54" viewBox="0 0 54 54" fill="none" xmlns="http://www.w3.org/2000/svg">
<g filter="url(#filter0_di_103_63496)">
<path d="M3 21.2C3 14.4794 3 11.1191 4.30792 8.55211C5.4584 6.29417 7.29417 4.4584 9.55211 3.30792C12.1191 2 15.4794 2 22.2 2H31.8C38.5206 2 41.8809 2 44.4479 3.30792C46.7058 4.4584 48.5416 6.29417 49.6921 8.55211C51 11.1191 51 14.4794 51 21.2V30.8C51 37.5206 51 40.8809 49.6921 43.4479C48.5416 45.7058 46.7058 47.5416 44.4479 48.6921C41.8809 50 38.5206 50 31.8 50H22.2C15.4794 50 12.1191 50 9.55211 48.6921C7.29417 47.5416 5.4584 45.7058 4.30792 43.4479C3 40.8809 3 37.5206 3 30.8V21.2Z" fill="hsl(23, 100%, 50%)"/>
</g>
<path d="M26.8118 23.1768C24.9295 23.1768 23.2354 24.3062 22.4824 26.0003H31.1412C30.3883 24.3062 28.7883 23.1768 26.8118 23.1768Z" fill="white"/>
<path d="M26.8116 21.2945C27.8511 21.2945 28.6939 20.4517 28.6939 19.4121C28.6939 18.3725 27.8511 17.5298 26.8116 17.5298C25.772 17.5298 24.9292 18.3725 24.9292 19.4121C24.9292 20.4517 25.772 21.2945 26.8116 21.2945Z" fill="white"/>
<path d="M35.6588 10.9414H18.3411C16.3646 10.9414 14.7646 12.5414 14.7646 14.5179V37.4826C14.7646 39.4591 16.3646 41.0591 18.3411 41.0591H35.6588C37.6352 41.0591 39.2352 39.4591 39.2352 37.4826V14.5179C39.2352 12.5414 37.6352 10.9414 35.6588 10.9414ZM24.0823 21.9532C23.5176 21.2943 23.1411 20.4473 23.1411 19.412C23.1411 17.3414 24.8352 15.6473 26.9058 15.6473C28.9764 15.6473 30.6705 17.3414 30.6705 19.412C30.6705 20.3532 30.2941 21.2002 29.7294 21.9532C31.6117 22.8943 33.0235 24.6826 33.3999 26.8473C33.3999 27.1296 33.3999 27.412 33.2117 27.6002C32.9294 27.7885 32.647 27.8826 32.3646 27.8826H21.2588C20.9764 27.8826 20.6941 27.7885 20.5058 27.5061C20.3176 27.3179 20.2235 27.0355 20.3176 26.7532C20.6941 24.5885 22.1058 22.8002 24.0823 21.9532ZM34.5294 36.3532H19.4705C18.9058 36.3532 18.5294 35.9767 18.5294 35.412C18.5294 34.8473 18.9058 34.4708 19.4705 34.4708H34.5294C35.0941 34.4708 35.4705 34.8473 35.4705 35.412C35.4705 35.9767 35.0941 36.3532 34.5294 36.3532ZM34.5294 32.5885H19.4705C18.9058 32.5885 18.5294 32.212 18.5294 31.6473C18.5294 31.0826 18.9058 30.7061 19.4705 30.7061H34.5294C35.0941 30.7061 35.4705 31.0826 35.4705 31.6473C35.4705 32.212 35.0941 32.5885 34.5294 32.5885Z" fill="white"/>
<defs>
<filter id="filter0_di_103_63496" x="0" y="0" width="54" height="54" filterUnits="userSpaceOnUse" color-interpolation-filters="sRGB">
<feFlood flood-opacity="0" result="BackgroundImageFix"/>
<feColorMatrix in="SourceAlpha" type="matrix" values="0 0 0 0 0 0 0 0 0 0 0 0 0 0 0 0 0 0 127 0" result="hardAlpha"/>
<feOffset dy="1"/>
<feGaussianBlur stdDeviation="1.5"/>
<feComposite in2="hardAlpha" operator="out"/>
<feColorMatrix type="matrix" values="0 0 0 0 0.184314 0 0 0 0 0.168627 0 0 0 0 0.262745 0 0 0 0.1 0"/>
<feBlend mode="normal" in2="BackgroundImageFix" result="effect1_dropShadow_103_63496"/>
<feBlend mode="normal" in="SourceGraphic" in2="effect1_dropShadow_103_63496" result="shape"/>
<feColorMatrix in="SourceAlpha" type="matrix" values="0 0 0 0 0 0 0 0 0 0 0 0 0 0 0 0 0 0 127 0" result="hardAlpha"/>
<feOffset dy="-1"/>
<feComposite in2="hardAlpha" operator="arithmetic" k2="-1" k3="1"/>
<feColorMatrix type="matrix" values="0 0 0 0 0.184314 0 0 0 0 0.168627 0 0 0 0 0.262745 0 0 0 0.1 0"/>
<feBlend mode="normal" in2="shape" result="effect2_innerShadow_103_63496"/>
</filter>
</defs>
</svg>
