<svg width="54" height="54" viewBox="0 0 54 54" fill="none" xmlns="http://www.w3.org/2000/svg">
<g filter="url(#filter0_di_265_57458)">
<rect x="3" y="2" width="48" height="48" rx="24" fill="white" shape-rendering="crispEdges"/>
<path d="M25 22H29V20.5C29 19.8078 29.2053 19.1311 29.5899 18.5555C29.9744 17.9799 30.5211 17.5313 31.1606 17.2664C31.8002 17.0015 32.5039 16.9322 33.1828 17.0673C33.8618 17.2023 34.4854 17.5356 34.9749 18.0251C35.4644 18.5146 35.7977 19.1383 35.9328 19.8172C36.0678 20.4961 35.9985 21.1999 35.7336 21.8394C35.4687 22.4789 35.0201 23.0256 34.4445 23.4101C33.8689 23.7947 33.1922 24 32.5 24H31V28H32.5C33.1922 28 33.8689 28.2053 34.4445 28.5899C35.0201 28.9744 35.4687 29.5211 35.7336 30.1606C35.9985 30.8002 36.0678 31.5039 35.9328 32.1828C35.7977 32.8618 35.4644 33.4854 34.9749 33.9749C34.4854 34.4644 33.8618 34.7977 33.1828 34.9328C32.5039 35.0678 31.8002 34.9985 31.1606 34.7336C30.5211 34.4687 29.9744 34.0201 29.5899 33.4445C29.2053 32.8689 29 32.1922 29 31.5V30H25V31.5C25 32.1922 24.7947 32.8689 24.4101 33.4445C24.0256 34.0201 23.4789 34.4687 22.8394 34.7336C22.1999 34.9985 21.4961 35.0678 20.8172 34.9328C20.1383 34.7977 19.5146 34.4644 19.0251 33.9749C18.5356 33.4854 18.2023 32.8618 18.0673 32.1828C17.9322 31.5039 18.0015 30.8002 18.2664 30.1606C18.5313 29.5211 18.9799 28.9744 19.5555 28.5899C20.1311 28.2053 20.8078 28 21.5 28H23V24H21.5C20.8078 24 20.1311 23.7947 19.5555 23.4101C18.9799 23.0256 18.5313 22.4789 18.2664 21.8394C18.0015 21.1999 17.9322 20.4961 18.0673 19.8172C18.2023 19.1383 18.5356 18.5146 19.0251 18.0251C19.5146 17.5356 20.1383 17.2023 20.8172 17.0673C21.4961 16.9322 22.1999 17.0015 22.8394 17.2664C23.4789 17.5313 24.0256 17.9799 24.4101 18.5555C24.7947 19.1311 25 19.8078 25 20.5V22ZM23 22V20.5C23 20.2033 22.912 19.9133 22.7472 19.6666C22.5824 19.42 22.3481 19.2277 22.074 19.1142C21.7999 19.0007 21.4983 18.9709 21.2074 19.0288C20.9164 19.0867 20.6491 19.2296 20.4393 19.4393C20.2296 19.6491 20.0867 19.9164 20.0288 20.2074C19.9709 20.4983 20.0007 20.7999 20.1142 21.074C20.2277 21.3481 20.42 21.5824 20.6666 21.7472C20.9133 21.912 21.2033 22 21.5 22H23ZM23 30H21.5C21.2033 30 20.9133 30.088 20.6666 30.2528C20.42 30.4176 20.2277 30.6519 20.1142 30.926C20.0007 31.2001 19.9709 31.5017 20.0288 31.7926C20.0867 32.0836 20.2296 32.3509 20.4393 32.5607C20.6491 32.7704 20.9164 32.9133 21.2074 32.9712C21.4983 33.0291 21.7999 32.9994 22.074 32.8858C22.3481 32.7723 22.5824 32.58 22.7472 32.3334C22.912 32.0867 23 31.7967 23 31.5V30ZM31 22H32.5C32.7967 22 33.0867 21.912 33.3334 21.7472C33.58 21.5824 33.7723 21.3481 33.8858 21.074C33.9994 20.7999 34.0291 20.4983 33.9712 20.2074C33.9133 19.9164 33.7704 19.6491 33.5607 19.4393C33.3509 19.2296 33.0836 19.0867 32.7926 19.0288C32.5017 18.9709 32.2001 19.0007 31.926 19.1142C31.6519 19.2277 31.4176 19.42 31.2528 19.6666C31.088 19.9133 31 20.2033 31 20.5V22ZM31 30V31.5C31 31.7967 31.088 32.0867 31.2528 32.3334C31.4176 32.58 31.6519 32.7723 31.926 32.8858C32.2001 32.9994 32.5017 33.0291 32.7926 32.9712C33.0836 32.9133 33.3509 32.7704 33.5607 32.5607C33.7704 32.3509 33.9133 32.0836 33.9712 31.7926C34.0291 31.5017 33.9994 31.2001 33.8858 30.926C33.7723 30.6519 33.58 30.4176 33.3334 30.2528C33.0867 30.088 32.7967 30 32.5 30H31ZM25 24V28H29V24H25Z" fill="#2F2B43"/>
<rect x="3.5" y="2.5" width="47" height="47" rx="23.5" stroke="#2F2B43" stroke-opacity="0.1" shape-rendering="crispEdges"/>
</g>
<defs>
<filter id="filter0_di_265_57458" x="0" y="0" width="54" height="54" filterUnits="userSpaceOnUse" color-interpolation-filters="sRGB">
<feFlood flood-opacity="0" result="BackgroundImageFix"/>
<feColorMatrix in="SourceAlpha" type="matrix" values="0 0 0 0 0 0 0 0 0 0 0 0 0 0 0 0 0 0 127 0" result="hardAlpha"/>
<feOffset dy="1"/>
<feGaussianBlur stdDeviation="1.5"/>
<feComposite in2="hardAlpha" operator="out"/>
<feColorMatrix type="matrix" values="0 0 0 0 0.184314 0 0 0 0 0.168627 0 0 0 0 0.262745 0 0 0 0.1 0"/>
<feBlend mode="normal" in2="BackgroundImageFix" result="effect1_dropShadow_265_57458"/>
<feBlend mode="normal" in="SourceGraphic" in2="effect1_dropShadow_265_57458" result="shape"/>
<feColorMatrix in="SourceAlpha" type="matrix" values="0 0 0 0 0 0 0 0 0 0 0 0 0 0 0 0 0 0 127 0" result="hardAlpha"/>
<feOffset dy="-1"/>
<feComposite in2="hardAlpha" operator="arithmetic" k2="-1" k3="1"/>
<feColorMatrix type="matrix" values="0 0 0 0 0.184314 0 0 0 0 0.168627 0 0 0 0 0.262745 0 0 0 0.1 0"/>
<feBlend mode="normal" in2="shape" result="effect2_innerShadow_265_57458"/>
</filter>
</defs>
</svg>
