<svg width="54" height="54" viewBox="0 0 54 54" fill="none" xmlns="http://www.w3.org/2000/svg">
<g filter="url(#filter0_di_103_63542)">
<path d="M3 21.2C3 14.4794 3 11.1191 4.30792 8.55211C5.4584 6.29417 7.29417 4.4584 9.55211 3.30792C12.1191 2 15.4794 2 22.2 2H31.8C38.5206 2 41.8809 2 44.4479 3.30792C46.7058 4.4584 48.5416 6.29417 49.6921 8.55211C51 11.1191 51 14.4794 51 21.2V30.8C51 37.5206 51 40.8809 49.6921 43.4479C48.5416 45.7058 46.7058 47.5416 44.4479 48.6921C41.8809 50 38.5206 50 31.8 50H22.2C15.4794 50 12.1191 50 9.55211 48.6921C7.29417 47.5416 5.4584 45.7058 4.30792 43.4479C3 40.8809 3 37.5206 3 30.8V21.2Z" fill="hsl(23, 100%, 50%)"/>
</g>
<g clip-path="url(#clip0_103_63542)">
<path d="M26.9999 20.5946C28.1214 20.5946 29.0306 19.6854 29.0306 18.5639C29.0306 17.4424 28.1214 16.5332 26.9999 16.5332C25.8784 16.5332 24.9692 17.4424 24.9692 18.5639C24.9692 19.6854 25.8784 20.5946 26.9999 20.5946Z" fill="white"/>
<path d="M37.6668 10.001H16.3334C13.3685 10.0244 10.9823 12.444 11.0001 15.409V31.6356C10.9823 34.6008 13.3683 37.0207 16.3334 37.0449H20.2307L25.228 41.3116C26.2179 42.2162 27.7305 42.2295 28.736 41.3423L33.8627 37.0436H37.6667C40.6318 37.0194 43.0178 34.5995 43 31.6343V15.409C43.0178 12.444 40.6317 10.0244 37.6668 10.001ZM27.0001 14.057C33.1534 14.2197 33.1521 23.3597 27.0001 23.5237C20.8468 23.3596 20.8481 14.2236 27.0001 14.057ZM32.6654 32.945C31.9519 33.127 31.2259 32.6962 31.0438 31.9827C31.043 31.9794 31.0422 31.9762 31.0414 31.973C30.359 29.7407 27.996 28.4842 25.7637 29.1667C24.42 29.5775 23.3682 30.6292 22.9574 31.973C22.7711 32.6858 22.0422 33.1126 21.3294 32.9263C20.6166 32.74 20.1898 32.0111 20.3761 31.2983C21.4071 27.6396 25.2088 25.5094 28.8675 26.5404C31.1735 27.1902 32.9756 28.9924 33.6254 31.2983C33.811 32.0175 33.3828 32.7521 32.6654 32.945Z" fill="white"/>
</g>
<defs>
<filter id="filter0_di_103_63542" x="0" y="0" width="54" height="54" filterUnits="userSpaceOnUse" color-interpolation-filters="sRGB">
<feFlood flood-opacity="0" result="BackgroundImageFix"/>
<feColorMatrix in="SourceAlpha" type="matrix" values="0 0 0 0 0 0 0 0 0 0 0 0 0 0 0 0 0 0 127 0" result="hardAlpha"/>
<feOffset dy="1"/>
<feGaussianBlur stdDeviation="1.5"/>
<feComposite in2="hardAlpha" operator="out"/>
<feColorMatrix type="matrix" values="0 0 0 0 0.184314 0 0 0 0 0.168627 0 0 0 0 0.262745 0 0 0 0.1 0"/>
<feBlend mode="normal" in2="BackgroundImageFix" result="effect1_dropShadow_103_63542"/>
<feBlend mode="normal" in="SourceGraphic" in2="effect1_dropShadow_103_63542" result="shape"/>
<feColorMatrix in="SourceAlpha" type="matrix" values="0 0 0 0 0 0 0 0 0 0 0 0 0 0 0 0 0 0 127 0" result="hardAlpha"/>
<feOffset dy="-1"/>
<feComposite in2="hardAlpha" operator="arithmetic" k2="-1" k3="1"/>
<feColorMatrix type="matrix" values="0 0 0 0 0.184314 0 0 0 0 0.168627 0 0 0 0 0.262745 0 0 0 0.1 0"/>
<feBlend mode="normal" in2="shape" result="effect2_innerShadow_103_63542"/>
</filter>
<clipPath id="clip0_103_63542">
<rect width="32" height="32" fill="white" transform="translate(11 10)"/>
</clipPath>
</defs>
</svg>
