<svg width="54" height="54" viewBox="0 0 54 54" fill="none" xmlns="http://www.w3.org/2000/svg">
<g filter="url(#filter0_di_103_63518)">
<path d="M3 21.2C3 14.4794 3 11.1191 4.30792 8.55211C5.4584 6.29417 7.29417 4.4584 9.55211 3.30792C12.1191 2 15.4794 2 22.2 2H31.8C38.5206 2 41.8809 2 44.4479 3.30792C46.7058 4.4584 48.5416 6.29417 49.6921 8.55211C51 11.1191 51 14.4794 51 21.2V30.8C51 37.5206 51 40.8809 49.6921 43.4479C48.5416 45.7058 46.7058 47.5416 44.4479 48.6921C41.8809 50 38.5206 50 31.8 50H22.2C15.4794 50 12.1191 50 9.55211 48.6921C7.29417 47.5416 5.4584 45.7058 4.30792 43.4479C3 40.8809 3 37.5206 3 30.8V21.2Z" fill="hsl(23, 100%, 50%)"/>
</g>
<path d="M18.3334 19.3333C15.7601 19.3333 13.6668 17.24 13.6668 14.6667C13.6668 12.0933 15.7601 10 18.3334 10C20.9068 10 23.0001 12.0933 23.0001 14.6667C23.0001 17.24 20.9068 19.3333 18.3334 19.3333ZM30.3334 19.3333C27.7601 19.3333 25.6668 17.24 25.6668 14.6667C25.6668 12.0933 27.7601 10 30.3334 10C32.9068 10 35.0001 12.0933 35.0001 14.6667C35.0001 17.24 32.9068 19.3333 30.3334 19.3333ZM41.2614 35.512L39.9628 34.7627C40.1841 34.1 40.3334 33.404 40.3334 32.6667C40.3334 31.9293 40.1854 31.2333 39.9628 30.5707L41.2614 29.8213C41.8988 29.4533 42.1174 28.6373 41.7494 28C41.3801 27.3613 40.5668 27.1413 39.9281 27.512L38.6308 28.2613C37.6908 27.2027 36.4388 26.428 35.0001 26.136V24.668C35.0001 23.932 34.4028 23.3347 33.6668 23.3347C32.9308 23.3347 32.3334 23.932 32.3334 24.668V26.136C30.8948 26.4293 29.6428 27.204 28.7028 28.2613L27.4054 27.512C26.7654 27.1427 25.9521 27.3613 25.5841 28C25.2161 28.6387 25.4348 29.4533 26.0721 29.8213L27.3708 30.5707C27.1494 31.2333 27.0001 31.9293 27.0001 32.6667C27.0001 33.404 27.1481 34.1 27.3708 34.7627L26.0721 35.512C25.4348 35.88 25.2161 36.696 25.5841 37.3333C25.8321 37.7613 26.2788 38 26.7401 38C26.9654 38 27.1948 37.9427 27.4054 37.8213L28.7028 37.072C29.6428 38.1307 30.8948 38.9053 32.3334 39.1973V40.6653C32.3334 41.4013 32.9308 41.9987 33.6668 41.9987C34.4028 41.9987 35.0001 41.4013 35.0001 40.6653V39.1973C36.4388 38.904 37.6908 38.1293 38.6308 37.072L39.9281 37.8213C40.1388 37.9427 40.3681 38 40.5934 38C41.0548 38 41.5028 37.7613 41.7494 37.3333C42.1174 36.6947 41.8988 35.88 41.2614 35.512ZM33.6668 34.6667C32.5641 34.6667 31.6668 33.7693 31.6668 32.6667C31.6668 31.564 32.5641 30.6667 33.6668 30.6667C34.7694 30.6667 35.6668 31.564 35.6668 32.6667C35.6668 33.7693 34.7694 34.6667 33.6668 34.6667ZM27.8028 22.2027C26.9481 21.2653 25.7308 20.6667 24.3668 20.6667C21.7934 20.6667 19.7001 22.76 19.7001 25.3333C19.7001 27.0907 20.6881 28.6067 22.1281 29.4027C22.9988 26.3187 25.0654 23.74 27.8028 22.2027ZM21.6668 32.6667C21.6668 32.26 21.6881 31.8587 21.7281 31.4613C18.6601 32.0573 16.3334 34.76 16.3334 38C16.3334 38.736 16.9308 39.3333 17.6668 39.3333H23.6908C22.4134 37.4267 21.6668 35.1347 21.6668 32.6667ZM17.0334 25.3333C17.0334 23.596 17.6441 22 18.6574 20.7427C14.5308 20.1453 10.9774 23.3533 11.0001 27.3707C11.0041 28.092 11.6201 28.6667 12.3414 28.6667H17.8641C17.3361 27.6493 17.0334 26.5147 17.0334 25.3333Z" fill="white"/>
<defs>
<filter id="filter0_di_103_63518" x="0" y="0" width="54" height="54" filterUnits="userSpaceOnUse" color-interpolation-filters="sRGB">
<feFlood flood-opacity="0" result="BackgroundImageFix"/>
<feColorMatrix in="SourceAlpha" type="matrix" values="0 0 0 0 0 0 0 0 0 0 0 0 0 0 0 0 0 0 127 0" result="hardAlpha"/>
<feOffset dy="1"/>
<feGaussianBlur stdDeviation="1.5"/>
<feComposite in2="hardAlpha" operator="out"/>
<feColorMatrix type="matrix" values="0 0 0 0 0.184314 0 0 0 0 0.168627 0 0 0 0 0.262745 0 0 0 0.1 0"/>
<feBlend mode="normal" in2="BackgroundImageFix" result="effect1_dropShadow_103_63518"/>
<feBlend mode="normal" in="SourceGraphic" in2="effect1_dropShadow_103_63518" result="shape"/>
<feColorMatrix in="SourceAlpha" type="matrix" values="0 0 0 0 0 0 0 0 0 0 0 0 0 0 0 0 0 0 127 0" result="hardAlpha"/>
<feOffset dy="-1"/>
<feComposite in2="hardAlpha" operator="arithmetic" k2="-1" k3="1"/>
<feColorMatrix type="matrix" values="0 0 0 0 0.184314 0 0 0 0 0.168627 0 0 0 0 0.262745 0 0 0 0.1 0"/>
<feBlend mode="normal" in2="shape" result="effect2_innerShadow_103_63518"/>
</filter>
</defs>
</svg>
