<svg width="54" height="54" viewBox="0 0 54 54" fill="none" xmlns="http://www.w3.org/2000/svg">
<g filter="url(#filter0_di_265_57451)">
<rect x="3" y="2" width="48" height="48" rx="24" fill="white" shape-rendering="crispEdges"/>
<path d="M27 36C21.477 36 17 31.523 17 26C17 20.477 21.477 16 27 16C32.523 16 37 20.477 37 26C37 31.523 32.523 36 27 36ZM24.71 33.667C23.7234 31.5743 23.1519 29.3102 23.027 27H19.062C19.2566 28.5389 19.8939 29.9882 20.8966 31.1717C21.8992 32.3552 23.224 33.2221 24.71 33.667ZM25.03 27C25.181 29.439 25.878 31.73 27 33.752C28.1523 31.6766 28.8254 29.3695 28.97 27H25.03ZM34.938 27H30.973C30.8481 29.3102 30.2766 31.5743 29.29 33.667C30.776 33.2221 32.1008 32.3552 33.1034 31.1717C34.1061 29.9882 34.7434 28.5389 34.938 27ZM19.062 25H23.027C23.1519 22.6898 23.7234 20.4257 24.71 18.333C23.224 18.7779 21.8992 19.6448 20.8966 20.8283C19.8939 22.0118 19.2566 23.4611 19.062 25ZM25.031 25H28.969C28.8248 22.6306 28.152 20.3235 27 18.248C25.8477 20.3234 25.1746 22.6305 25.03 25H25.031ZM29.29 18.333C30.2766 20.4257 30.8481 22.6898 30.973 25H34.938C34.7434 23.4611 34.1061 22.0118 33.1034 20.8283C32.1008 19.6448 30.776 18.7779 29.29 18.333Z" fill="#2F2B43"/>
<rect x="3.5" y="2.5" width="47" height="47" rx="23.5" stroke="#2F2B43" stroke-opacity="0.1" shape-rendering="crispEdges"/>
</g>
<defs>
<filter id="filter0_di_265_57451" x="0" y="0" width="54" height="54" filterUnits="userSpaceOnUse" color-interpolation-filters="sRGB">
<feFlood flood-opacity="0" result="BackgroundImageFix"/>
<feColorMatrix in="SourceAlpha" type="matrix" values="0 0 0 0 0 0 0 0 0 0 0 0 0 0 0 0 0 0 127 0" result="hardAlpha"/>
<feOffset dy="1"/>
<feGaussianBlur stdDeviation="1.5"/>
<feComposite in2="hardAlpha" operator="out"/>
<feColorMatrix type="matrix" values="0 0 0 0 0.184314 0 0 0 0 0.168627 0 0 0 0 0.262745 0 0 0 0.1 0"/>
<feBlend mode="normal" in2="BackgroundImageFix" result="effect1_dropShadow_265_57451"/>
<feBlend mode="normal" in="SourceGraphic" in2="effect1_dropShadow_265_57451" result="shape"/>
<feColorMatrix in="SourceAlpha" type="matrix" values="0 0 0 0 0 0 0 0 0 0 0 0 0 0 0 0 0 0 127 0" result="hardAlpha"/>
<feOffset dy="-1"/>
<feComposite in2="hardAlpha" operator="arithmetic" k2="-1" k3="1"/>
<feColorMatrix type="matrix" values="0 0 0 0 0.184314 0 0 0 0 0.168627 0 0 0 0 0.262745 0 0 0 0.1 0"/>
<feBlend mode="normal" in2="shape" result="effect2_innerShadow_265_57451"/>
</filter>
</defs>
</svg>
