<svg width="40" height="40" viewBox="0 0 40 40" fill="none" xmlns="http://www.w3.org/2000/svg">
<g clip-path="url(#clip0_103_64962)">
<path d="M20.9436 39.9999C9.89794 39.997 0.946007 31.0403 0.948975 19.9947C0.951944 8.94905 9.90864 -0.00296801 20.9543 7.38177e-07C28.498 0.00203198 35.3987 4.24843 38.8002 10.9816C39.4014 12.2246 38.8811 13.7196 37.6381 14.3207C36.4271 14.9064 34.9698 14.4288 34.3402 13.2399C30.6071 5.84452 21.5857 2.87562 14.1902 6.60874C6.79474 10.3419 3.82585 19.3633 7.55896 26.7588C11.2921 34.1542 20.3135 37.1231 27.709 33.39C30.559 31.9514 32.8756 29.641 34.322 26.795C34.9484 25.5642 36.4538 25.0744 37.6845 25.7008C38.9152 26.3272 39.405 27.8326 38.7786 29.0633C35.3791 35.7872 28.4781 40.019 20.9436 39.9999Z" fill="#169B62"/>
</g>
<defs>
<clipPath id="clip0_103_64962">
<rect width="40" height="40" fill="white"/>
</clipPath>
</defs>
</svg>
