<svg width="40" height="40" viewBox="0 0 40 40" fill="none" xmlns="http://www.w3.org/2000/svg">
<circle cx="20" cy="20" r="20" fill="#FF883E" fill-opacity="0.1"/>
<path d="M30 28.007C29.9982 28.2696 29.8931 28.521 29.7075 28.7068C29.5219 28.8926 29.2706 28.9979 29.008 29H10.992C10.7288 28.9997 10.4765 28.895 10.2905 28.7088C10.1045 28.5226 10 28.2702 10 28.007V27H28V15.3L20 22.5L10 13.5V12C10 11.7348 10.1054 11.4804 10.2929 11.2929C10.4804 11.1054 10.7348 11 11 11H29C29.2652 11 29.5196 11.1054 29.7071 11.2929C29.8946 11.4804 30 11.7348 30 12V28.007ZM12.434 13L20 19.81L27.566 13H12.434ZM8 23H16V25H8V23ZM8 18H13V20H8V18Z" fill="#FF883E"/>
</svg>
